<?xml version="1.0" encoding="UTF-8"?>
<svg width="1080px" height="1080px" viewBox="0 0 1080 1080" version="1.1" xmlns="http://www.w3.org/2000/svg" xmlns:xlink="http://www.w3.org/1999/xlink">
    <title>Logo/1:1</title>
    <g id="Logo/1:1" stroke="none" fill="none">
        <path d="M1080,0 L1080,1079.9568 C1080,1079.9568 1080,1080 1079.9568,1080 L0.0432,1080 C0.0432,1080 0,1080 0,1079.9568 L0,0 L1080,0 Z" id="Path" fill="#7569DE" fill-rule="nonzero"></path>
        <polygon id="Path" fill="#635ECC" fill-rule="nonzero" points="1080 1080 613.361383 1080 320.864226 787.672196 320 326.158811 508.919718 291 600.052308 382.136476 637.516489 338.684677 702.722311 337.172935 770.909711 405.330925 787.718899 338.339136 851.153059 337.172935 1080 565.834784"></polygon>
        <g id="Group" stroke-width="1" fill-rule="evenodd" transform="translate(285, 258)" fill="#FFFFFF">
            <path d="M0,425.383541 L0,137.616459 C0,50.0502073 46.1029891,0 130.531518,0 C214.960047,0 261.063036,50.0502073 261.063036,137.616459 L261.063036,425.383541 C261.063036,512.949793 214.916839,563 130.531518,563 C46.1461971,563 0,512.949793 0,425.383541 Z M175.079017,430.872639 L175.079017,132.170582 C175.079017,93.0553508 157.882214,78.2304622 130.531518,78.2304622 C103.180823,78.2304622 85.9840189,93.0985721 85.9840189,132.170582 L85.9840189,430.872639 C85.9840189,469.98787 103.180823,484.812759 130.531518,484.812759 C157.882214,484.812759 175.079017,469.944649 175.079017,430.872639 Z" id="Shape" fill-rule="nonzero"></path>
            <g transform="translate(308.0302, 62.8437)" fill-rule="nonzero" id="Shape">
                <path d="M0,66.5607247 C0,24.2038999 22.2953537,0 63.1269606,0 C103.958568,0 126.253921,24.2038999 126.253921,66.5607247 L126.253921,113.023568 C126.253921,155.380393 103.958568,179.541072 63.1269606,179.541072 C22.2953537,179.541072 0,155.337172 0,113.023568 L0,66.5607247 L0,66.5607247 Z M41.5661438,115.703286 C41.5661438,134.590972 49.8620894,141.765699 63.1269606,141.765699 C76.3918319,141.765699 84.6445694,134.590972 84.6445694,115.703286 L84.6445694,63.9242285 C84.6445694,45.0365423 76.3486239,37.8618148 63.1269606,37.8618148 C49.9052974,37.8618148 41.5661438,45.0365423 41.5661438,63.9242285 L41.5661438,115.703286 Z"></path>
                <path d="M149.7591,66.5607247 C149.7591,24.2038999 172.054454,0 212.886061,0 C253.717668,0 275.969814,24.2038999 275.969814,66.5607247 L275.969814,113.023568 C275.969814,155.380393 253.67446,179.541072 212.886061,179.541072 C172.097662,179.541072 149.7591,155.337172 149.7591,113.023568 L149.7591,66.5607247 Z M191.325244,115.703286 C191.325244,134.590972 199.62119,141.765699 212.886061,141.765699 C226.150932,141.765699 234.40367,134.590972 234.40367,115.703286 L234.40367,63.9242285 C234.40367,45.0365423 226.107724,37.8618148 212.886061,37.8618148 C199.664398,37.8618148 191.325244,45.0365423 191.325244,63.9242285 L191.325244,115.703286 Z"></path>
            </g>
        </g>
    </g>
</svg>